<svg xmlns="http://www.w3.org/2000/svg" height="24" width="24"><path d="M16.46 15h-.8l-.27-.27a6.5 6.5 0 10-.7.7l.27.28v.8l5 4.98L21.45 20zm-6 0a4.5 4.5 0 11-.02-8.99 4.5 4.5 0 01.02 9z"/><path d="M16.45 9.78a6.53 6.53 0 00-.39-1.51l1.32-1.69a.41.41 0 00-.03-.52l-2.22-2.3a.4.4 0 00-.52-.05l-1.74 1.25c-.48-.2-.97-.35-1.5-.42l-.8-1.99a.4.4 0 00-.47-.23L7 3.09a.39.39 0 00-.3.43l.22 2.13c-.42.31-.8.68-1.12 1.08l-2.12-.3a.4.4 0 00-.43.3l-.88 3.08c-.06.2.03.39.22.47l1.96.87a5.03 5.03 0 00.36 1.51l-1.32 1.7c-.11.15-.1.37.03.51l2.23 2.3a.4.4 0 00.51.06l1.74-1.26c.49.2.98.35 1.5.43l.8 1.98a.4.4 0 00.48.24l3.1-.78c.2-.05.32-.22.3-.42l-.23-2.13c.43-.32.8-.69 1.12-1.09l2.13.3c.19.02.38-.1.43-.3l.88-3.07a.39.39 0 00-.22-.47zm-5.24 3.6a3 3 0 01-3.63-2.19 3 3 0 012.18-3.63 3 3 0 013.64 2.18 3 3 0 01-2.19 3.64z"/></svg>