<svg xmlns="http://www.w3.org/2000/svg" height="24" width="24"><path d="M0 0h24v24H0z" fill="none"/><path d="M17.14 15.64h-.79c-.92.95.24-.21-.71.71v.79l5 4.99 1.49-1.49z"/><path d="M15.94 12.7a6.53 6.53 0 00.4-1.5l1.98-.83a.41.41 0 00.23-.47l-.81-3.1a.4.4 0 00-.43-.3l-2.13.25a5.86 5.86 0 00-1.1-1.1l.27-2.13a.4.4 0 00-.3-.44l-3.08-.84a.39.39 0 00-.46.23l-.85 1.96c-.53.07-1.03.2-1.51.4l-1.71-1.3a.4.4 0 00-.52.05L3.65 5.83a.39.39 0 00-.04.51l1.28 1.72a5.03 5.03 0 00-.42 1.5l-1.98.83a.41.41 0 00-.23.47l.81 3.1c.05.2.24.3.43.3L5.63 14c.32.42.67.78 1.1 1.1l-.27 2.13c-.02.2.1.38.3.43l3.08.85c.2.05.4-.04.46-.23l.85-1.96c.53-.07 1.03-.2 1.51-.4l1.7 1.3c.16.11.38.1.53-.05l2.27-2.25a.39.39 0 00.04-.52zm-6.33.57a3 3 0 01-2.1-3.68 3 3 0 013.69-2.1 3 3 0 012.1 3.68 3 3 0 01-3.69 2.1z"/></svg>